<?xml version="1.0" encoding="UTF-8" standalone="no"?>
<!-- Created with Serif DrawPlus 11, 0, 0, 18 (Mar 20, 15:09:53) (http://www.serif.com) -->
<svg version="1.1" xmlns="http://www.w3.org/2000/svg" xmlns:xlink="http://www.w3.org/1999/xlink" width="441.333" height="393.476">
	<defs>
		<linearGradient id="grad_dp_001" gradientUnits="userSpaceOnUse" x1="198" y1="371" x2="245" y2="68">
			<stop offset="0" stop-color="#4913eb"/>
			<stop offset="0.1813" stop-color="#1349eb"/>
			<stop offset="1" stop-color="#13b5eb"/>
		</linearGradient>
		<linearGradient id="grad_dp_002" gradientUnits="userSpaceOnUse" x1="381" y1="82" x2="403" y2="357">
			<stop offset="0" stop-color="#eb4913"/>
			<stop offset="0.6559" stop-color="#eb1313"/>
			<stop offset="1" stop-color="#eb137f"/>
		</linearGradient>
	</defs>
	<g id="dp_group001" transform="matrix(1,0,0,1,-21.8293,-20.0547)">
		<path id="dp_path002" fill="white" fill-rule="evenodd" stroke="black" stroke-width="6.66667" d="M 443.637,233.261 C 444.072,233.208 460.785,218.549 460.999,218.455 C 460.999,218.455 457.935,219.441 457.935,219.441 C 458.172,219.337 428.3,197.309 411.977,195.751 C 411.468,195.701 399.159,197.587 398.701,197.724 C 398.701,197.724 404.828,197.724 404.828,197.724 C 401.741,198.66 436.488,155.277 436.488,155.277 C 491.127,9.504 211.388,31.9787 187.605,26.9493 C 187.605,26.9493 187.605,26.9493 187.605,26.9493 C 187.605,26.9493 187.605,26.9493 187.605,26.9493 C 187.291,27.08 179.813,22.9067 180.148,23 C 190.701,25.9533 190.452,135.444 192.404,148.367 C 192.404,148.367 175.139,86.3653 143.383,26.948 C 143.197,26.6013 146.488,32.324 146.304,31.9787 C 137.701,15.9787 49.3413,44.0813 29,46.692 C 29,46.692 31.4213,48.8893 31.4213,48.8893 C 45.1907,157.049 45.808,293.355 45.34,406.999 C 45.34,406.999 49.4253,404.037 49.4253,404.037 C 71.2427,396.875 107.205,398.247 146.447,400.089 C 146.447,400.089 141.713,395.173 141.713,395.173 C 145.365,395.344 131.901,305.733 132.148,304.336 C 132.152,304.319 139.269,329.915 139.297,330.001 C 144.341,345.256 163.632,400.177 163.808,400.089 C 163.808,400.089 162.897,396.631 162.897,396.631 C 171.608,392.275 182.849,398.693 193.437,400.208 C 266.868,410.717 360.407,376.869 444.659,406.999 C 444.659,406.999 440.573,406.012 440.573,406.012 Z "/>
		<path id="dp_path008" fill="url(#grad_dp_001)" fill-rule="evenodd" stroke="black" stroke-width="6.66667" d="M 55.5533,66.4213 C 55.5533,66.4213 57.8653,67.3893 57.8653,67.3893 C 187.836,1.10533 166.349,177.24 204.659,338.873 C 204.659,338.873 203.637,338.873 203.637,338.873 C 220.269,132.02 207.137,82.0333 209.684,49.6333 C 209.709,49.304 208.716,47.9907 208.744,47.6653 C 302.807,58.6027 402.819,45.724 406.871,152.303 C 375.975,152.428 407.767,166.009 374.191,165.136 C 373.655,164.113 371.401,171.065 371.127,170.072 C 406.409,61.1227 293.668,83.604 281.255,86.164 C 255.195,95.016 251.671,175.192 252.072,246.287 C 252.216,251.645 256.392,304.524 278.5,323.929 C 305.436,355.544 390.525,339.16 399.723,253.979 C 400.219,251.641 335.447,250.797 331.297,251.017 C 316.632,250.381 339.708,248.088 323.127,248.056 C 320.543,247.744 329.241,245.597 329.255,245.095 C 329.412,239.025 314.017,245.777 314.956,238.184 C 315.467,237.148 316.413,234.151 316.999,233.248 C 353.256,234.665 382.051,244.837 412.999,246.081 C 411.627,268.233 405.651,287.888 412.999,310.245 C 410.977,319.449 417.472,328.203 416.853,330.141 C 415.492,337.871 414.539,340.149 413.091,350.721 C 413.343,353.443 411.545,357.876 411.504,360.348 C 411.1,361.684 400.269,347.136 398.701,352.693 C 367.035,353.763 343.463,363.724 300.659,372.436 C 99.7653,413.324 181.496,326.705 107.639,112.817 C 107.639,112.817 109.68,111.831 109.68,111.831 C 107.348,218.331 118.579,320.511 125,374.411 C 125,374.411 122.272,373.835 122.272,373.835 C 113.687,373.852 69.3653,379.463 67.808,379.345 C 67.808,379.345 69.8507,376.384 69.8507,376.384 Z "/>
		<path id="dp_path017" fill="url(#grad_dp_002)" fill-rule="evenodd" stroke="black" stroke-width="6.66667" d="M 230.637,213.193 C 236.597,98.2933 282.94,51.6613 311.893,56.5507 C 470.891,75.0933 426.151,188.713 357.851,185.865 C 357.851,185.865 359.892,182.904 359.892,182.904 C 359.357,181.879 381.667,96.8253 311.397,98.8587 C 280.892,102.388 253.991,154.365 255.875,228.419 C 256.02,233.775 255.236,312.513 298.812,326.624 C 304.12,329.097 364.568,349.956 387.648,263.915 C 291.164,282.204 302.399,237.343 298.616,216.467 C 298.616,216.467 301.035,218.361 301.035,218.361 C 337.288,219.779 398.388,221.147 429.339,222.391 C 429.34,222.391 428.363,223.095 428.365,223.095 C 426.993,245.244 424.031,373.447 423.212,378.359 C 423.212,378.359 421.169,377.372 421.169,377.372 C 382.66,370.729 331.877,368.197 308.087,371.701 C 304.423,372.459 222.316,378.432 230.637,213.193 Z "/>
	</g>
</svg>